<svg xmlns="http://www.w3.org/2000/svg" viewBox="0 0 842 596"><g><circle cx="420.9" cy="296.5" r="18.552" style="fill:#61dafb;"/><path d="M434.433,249.987l4.127,-8.603c7.947,-15.104 17.157,-26.419 27.633,-33.942c7.268,-5.22 19.786,-10.938 37.552,-17.152c12.039,-4.174 20.612,-8.209 25.721,-12.105c5.108,-3.896 9.252,-8.865 12.431,-14.907c6.028,-11.459 7.506,-23.117 4.434,-34.974c-3.072,-11.857 -9.348,-20.28 -18.827,-25.267c-9.688,-5.097 -19.837,-5.714 -30.447,-1.853c-10.61,3.861 -21.152,13.344 -31.626,28.45l-21.943,-15.933c13.911,-20.879 29.147,-33.977 45.711,-39.295c16.563,-5.318 33.335,-3.51 50.315,5.423c17.084,8.988 28.247,22.342 33.488,40.062c5.241,17.72 3.067,35.695 -6.524,53.925c-5.261,10.001 -11.959,18.181 -20.094,24.542c-8.134,6.361 -21.06,12.728 -38.777,19.101c-15.01,5.271 -25.262,10.285 -30.757,15.042c-5.495,4.756 -12.29,14.449 -20.384,29.077l-22.033,-11.591Z" style="fill:#61dafb;fill-rule:nonzero;"/><path d="M469.609,281.836l9.539,0.193c17.039,0.975 31.153,4.672 42.339,11.09c7.762,4.453 18.151,13.478 31.167,27.074c8.786,9.228 16.01,15.36 21.672,18.396c5.662,3.036 11.901,4.749 18.717,5.139c12.927,0.74 24.15,-2.743 33.67,-10.451c9.519,-7.708 14.585,-16.909 15.198,-27.603c0.626,-10.929 -3.016,-20.422 -10.926,-28.48c-7.909,-8.057 -20.907,-13.724 -38.994,-17l5.412,-26.571c24.765,4.012 42.998,12.454 54.7,25.327c11.701,12.873 17.003,28.887 15.906,48.042c-1.103,19.272 -8.634,34.964 -22.591,47.075c-13.957,12.111 -31.219,17.577 -51.784,16.399c-11.281,-0.646 -21.501,-3.353 -30.66,-8.122c-9.159,-4.769 -20.309,-13.896 -33.449,-27.382c-11.015,-11.477 -19.825,-18.732 -26.431,-21.763c-6.605,-3.031 -18.242,-5.2 -34.909,-6.508l1.424,-24.855Z" style="fill:#61dafb;fill-rule:nonzero;"/><path d="M459.325,329.684l4.824,8.232c8.079,15.034 12.309,28.997 12.689,41.888c0.263,8.945 -1.996,22.52 -6.779,40.724c-3.271,12.314 -4.719,21.678 -4.346,28.092c0.373,6.414 2.176,12.628 5.408,18.642c6.129,11.405 14.967,19.149 26.515,23.233c11.549,4.083 22.041,3.59 31.476,-1.481c9.642,-5.181 15.83,-13.25 18.561,-24.206c2.732,-10.955 0.765,-24.998 -5.902,-42.127l25.479,-9.283c9.531,23.207 11.87,43.164 7.017,59.869c-4.853,16.706 -15.73,29.6 -32.63,38.682c-17.004,9.138 -34.317,10.925 -51.939,5.362c-17.622,-5.564 -31.308,-17.418 -41.059,-35.563c-5.349,-9.953 -8.386,-20.081 -9.111,-30.381c-0.725,-10.301 1.224,-24.577 5.848,-42.83c4.022,-15.391 5.598,-26.694 4.728,-33.909c-0.871,-7.216 -5.107,-18.269 -12.708,-33.159l21.929,-11.785Z" style="fill:#61dafb;fill-rule:nonzero;"/><path d="M410.646,345.598l-4.372,8.48c-8.377,14.871 -17.909,25.915 -28.596,33.135c-7.416,5.009 -20.092,10.364 -38.03,16.066c-12.153,3.826 -20.839,7.613 -26.058,11.361c-5.218,3.747 -9.503,8.595 -12.854,14.543c-6.355,11.281 -8.167,22.892 -5.437,34.833c2.73,11.941 8.761,20.54 18.094,25.797c9.537,5.373 19.664,6.282 30.381,2.727c10.716,-3.554 21.526,-12.731 32.43,-27.529l21.476,16.557c-14.505,20.47 -30.111,33.125 -46.821,37.965c-16.709,4.84 -33.422,2.551 -50.138,-6.866c-16.819,-9.475 -27.594,-23.144 -32.324,-41.008c-4.73,-17.863 -2.039,-35.769 8.071,-53.715c5.546,-9.846 12.476,-17.83 20.79,-23.955c8.314,-6.124 21.417,-12.117 39.311,-17.979c15.154,-4.838 25.546,-9.555 31.176,-14.152c5.629,-4.597 12.7,-14.09 21.211,-28.479l21.69,12.219Z" style="fill:#61dafb;fill-rule:nonzero;"/><path d="M374.585,309.099l-9.52,0.624c-17.061,0.484 -31.438,-1.993 -43.133,-7.432c-8.114,-3.773 -19.236,-11.877 -33.366,-24.311c-9.543,-8.443 -17.264,-13.936 -23.165,-16.476c-5.901,-2.541 -12.264,-3.715 -19.088,-3.521c-12.943,0.367 -23.827,4.797 -32.653,13.29c-8.826,8.494 -13.087,18.094 -12.784,28.801c0.311,10.942 4.751,20.089 13.32,27.442c8.569,7.352 22.004,11.887 40.305,13.605l-3.122,26.936c-25.017,-1.88 -43.905,-8.734 -56.664,-20.559c-12.759,-11.826 -19.41,-27.328 -19.954,-46.507c-0.548,-19.296 5.614,-35.574 18.485,-48.833c12.872,-13.259 29.602,-20.181 50.193,-20.765c11.295,-0.321 21.71,1.503 31.243,5.472c9.533,3.969 21.421,12.11 35.666,24.423c11.955,10.494 21.353,16.969 28.194,19.425c6.84,2.455 18.62,3.622 35.337,3.501l0.706,24.885Z" style="fill:#61dafb;fill-rule:nonzero;"/><path d="M387.432,261.704l-5.112,-8.056c-8.604,-14.74 -13.324,-28.545 -14.158,-41.415c-0.579,-8.93 1.2,-22.576 5.338,-40.937c2.834,-12.422 3.952,-21.832 3.353,-28.229c-0.6,-6.396 -2.62,-12.543 -6.062,-18.439c-6.527,-11.182 -15.634,-18.609 -27.319,-22.283c-11.685,-3.674 -22.153,-2.81 -31.403,2.59c-9.454,5.518 -15.353,13.8 -17.697,24.845c-2.343,11.045 0.118,25.01 7.385,41.894l-25.136,10.175c-10.344,-22.857 -13.385,-42.718 -9.124,-59.584c4.26,-16.867 14.676,-30.136 31.245,-39.809c16.672,-9.732 33.911,-12.128 51.718,-7.19c17.807,4.938 31.903,16.302 42.288,34.092c5.696,9.759 9.089,19.773 10.176,30.041c1.088,10.269 -0.356,24.605 -4.333,43.009c-3.477,15.523 -4.654,26.875 -3.529,34.056c1.125,7.18 5.748,18.077 13.87,32.69l-21.5,12.55Z" style="fill:#61dafb;fill-rule:nonzero;"/></g></svg>